<svg width="92" height="92" viewBox="0 0 92 92" fill="none" xmlns="http://www.w3.org/2000/svg">
<path d="M66.2467 29.544L65.7341 26.7351C65.1656 23.6179 62.1282 21.4961 58.8692 21.9393L55.9327 22.3387C54.8145 22.4908 53.6862 22.1382 52.8745 21.3832L50.7428 19.4004C48.3771 17.1999 44.6229 17.1999 42.2573 19.4004L40.1257 21.3832C39.314 22.1382 38.1854 22.4908 37.0673 22.3387L34.1307 21.9393C30.8717 21.4961 27.8344 23.6179 27.2658 26.7351L26.7533 29.544C26.5582 30.6135 25.8607 31.5366 24.8632 32.0455L22.2433 33.3821C19.3358 34.8654 18.1756 38.2986 19.6211 41.1419L20.9236 43.7039C21.4195 44.6795 21.4195 45.8204 20.9236 46.7961L19.6211 49.3581C18.1756 52.2013 19.3358 55.6344 22.2433 57.1177L24.8632 58.4545C25.8607 58.9634 26.5582 59.8865 26.7533 60.9561L27.2658 63.7649C27.8344 66.882 30.8717 69.004 34.1307 68.5605L37.0673 68.1612C38.1854 68.0092 39.314 68.3618 40.1257 69.1166L42.2573 71.0996C44.6229 73.3001 48.3771 73.3001 50.7428 71.0996L52.8745 69.1166C53.6862 68.3618 54.8145 68.0092 55.9327 68.1612L58.8692 68.5605C62.1282 69.004 65.1656 66.882 65.7341 63.7649L66.2467 60.9561C66.4416 59.8865 67.1394 58.9634 68.1369 58.4545L70.7567 57.1177C73.6642 55.6344 74.8244 52.2013 73.3788 49.3581L72.0764 46.7961C71.5804 45.8204 71.5804 44.6795 72.0764 43.7039L73.3788 41.1419C74.8244 38.2986 73.6642 34.8654 70.7567 33.3821L68.1369 32.0455C67.1394 31.5366 66.4416 30.6135 66.2467 29.544Z" fill="#FFBE55"/>
<path d="M66.2467 29.544L65.0445 29.7467M66.2467 29.544L65.7341 26.7351C65.1656 23.6179 62.1282 21.4961 58.8692 21.9393L55.9327 22.3387C54.8145 22.4908 53.6862 22.1382 52.8745 21.3832L50.7428 19.4004C48.3771 17.1999 44.6229 17.1999 42.2573 19.4004L40.1257 21.3832C39.314 22.1382 38.1854 22.4908 37.0673 22.3387L34.1307 21.9393C30.8717 21.4961 27.8344 23.6179 27.2658 26.7351L26.7533 29.544C26.5582 30.6135 25.8607 31.5366 24.8632 32.0455L22.2433 33.3821C19.3358 34.8654 18.1756 38.2986 19.6211 41.1419L20.9236 43.7039C21.4195 44.6795 21.4195 45.8204 20.9236 46.7961L19.6211 49.3581C18.1756 52.2013 19.3358 55.6344 22.2433 57.1177L24.8632 58.4545C25.8607 58.9634 26.5582 59.8865 26.7533 60.9561L27.2658 63.7649C27.8344 66.882 30.8717 69.004 34.1307 68.5605L37.0673 68.1612C38.1854 68.0092 39.314 68.3618 40.1257 69.1166L42.2573 71.0996C44.6229 73.3001 48.3771 73.3001 50.7428 71.0996L52.8745 69.1166C53.6862 68.3618 54.8145 68.0092 55.9327 68.1612L58.8692 68.5605C62.1282 69.004 65.1656 66.882 65.7341 63.7649L66.2467 60.9561C66.4416 59.8865 67.1394 58.9634 68.1369 58.4545L70.7567 57.1177C73.6642 55.6344 74.8244 52.2013 73.3788 49.3581L72.0764 46.7961C71.5804 45.8204 71.5804 44.6795 72.0764 43.7039L73.3788 41.1419C74.8244 38.2986 73.6642 34.8654 70.7567 33.3821L68.1369 32.0455C67.1394 31.5366 66.4416 30.6135 66.2467 29.544Z" stroke="#FF810B" stroke-width="2"/>
</svg>
