<svg width="30" height="30" viewBox="0 0 30 30" fill="none" xmlns="http://www.w3.org/2000/svg">
<path d="M4.02459 5.35041C3.65847 4.9843 3.65847 4.3907 4.02459 4.02459C4.3907 3.65847 4.9843 3.65847 5.35041 4.02459L15 13.6742L24.6496 4.02459C25.0157 3.65847 25.6093 3.65847 25.9754 4.02459C26.3415 4.3907 26.3415 4.9843 25.9754 5.35041L16.3258 15L25.9754 24.6496C26.3415 25.0157 26.3415 25.6093 25.9754 25.9754C25.6093 26.3415 25.0157 26.3415 24.6496 25.9754L15 16.3258L5.35041 25.9754C4.9843 26.3415 4.39071 26.3415 4.02459 25.9754C3.65847 25.6093 3.65847 25.0157 4.02459 24.6496L13.6742 15L4.02459 5.35041Z" fill="#FF0F43"/>
</svg>
