<svg xmlns="http://www.w3.org/2000/svg"  viewBox="0 0 50 50" width="25px" height="25px"><path d="M 22 8 C 20.343 8 19 9.343 19 11 L 10 11 C 8.343 11 7 12.343 7 14 L 7 36 C 7 37.657 8.343 39 10 39 L 40 39 C 41.657 39 43 37.657 43 36 L 43 14 C 43 12.343 41.657 11 40 11 L 31 11 C 31 9.343 29.657 8 28 8 L 22 8 z M 22 9 L 28 9 C 29.105 9 30 9.895 30 11 L 20 11 C 20 9.895 20.895 9 22 9 z M 10 12 L 40 12 C 41.105 12 42 12.895 42 14 L 42 22.396484 C 41.560704 22.482564 33.722737 24.003906 25 24.003906 C 16.277531 24.003906 8.4388563 22.48265 8 22.396484 L 8 14 C 8 12.895 8.895 12 10 12 z M 8 23.447266 C 9.6570693 23.756221 15.127237 24.692445 22 24.9375 L 22 25.667969 C 22 26.403969 22.596984 27 23.333984 27 L 26.667969 27 C 27.403969 27 28 26.403969 28 25.667969 L 28 24.9375 C 34.872763 24.692445 40.342931 23.756221 42 23.447266 L 42 36 C 42 37.105 41.105 38 40 38 L 10 38 C 8.895 38 8 37.105 8 36 L 8 23.447266 z"/></svg>