<svg width="20" height="21" viewBox="0 0 20 21" fill="none" xmlns="http://www.w3.org/2000/svg">
<path d="M8.125 1.7002C7.08967 1.7002 6.25 2.53916 6.25 3.57489V4.2002H1.875C0.839466 4.2002 0 5.03966 0 6.0752V16.0752C0 17.1107 0.839466 17.9502 1.875 17.9502H18.125C19.1605 17.9502 20 17.1107 20 16.0752V6.0752C20 5.03966 19.1605 4.2002 18.125 4.2002H13.75V3.57489C13.75 2.53916 12.9103 1.7002 11.875 1.7002H8.125ZM8.125 2.9502H11.875C12.2204 2.9502 12.5 3.23098 12.5 3.57596V4.2002H7.5V3.57489C7.5 3.22991 7.77962 2.9502 8.125 2.9502ZM10.4831 11.5932L18.75 9.3887V16.0752C18.75 16.4204 18.4702 16.7002 18.125 16.7002H1.875C1.52982 16.7002 1.25 16.4204 1.25 16.0752V9.3887L9.51688 11.5932C9.83343 11.6776 10.1666 11.6776 10.4831 11.5932ZM1.875 5.4502H18.125C18.4702 5.4502 18.75 5.73002 18.75 6.0752V8.09502L10.161 10.3854C10.0555 10.4135 9.94448 10.4135 9.83896 10.3854L1.25 8.09502V6.0752C1.25 5.73002 1.52982 5.4502 1.875 5.4502Z" fill="#E1B824"/>
</svg>
