<svg width="20" height="21" viewBox="0 0 20 21" fill="none" xmlns="http://www.w3.org/2000/svg">
<path d="M4.375 0.450195C4.72018 0.450195 5 0.730017 5 1.0752V1.7002H15V1.0752C15 0.730017 15.2798 0.450195 15.625 0.450195C15.9702 0.450195 16.25 0.730017 16.25 1.0752V1.7002H17.5C18.8807 1.7002 20 2.81948 20 4.2002V17.9502C20 19.3309 18.8807 20.4502 17.5 20.4502H2.5C1.11929 20.4502 0 19.3309 0 17.9502V4.2002C0 2.81948 1.11929 1.7002 2.5 1.7002H3.75V1.0752C3.75 0.730017 4.02982 0.450195 4.375 0.450195ZM2.5 2.9502C1.80964 2.9502 1.25 3.50984 1.25 4.2002V5.4502H18.75V4.2002C18.75 3.50984 18.1904 2.9502 17.5 2.9502H2.5ZM18.75 6.7002H1.25V17.9502C1.25 18.6406 1.80964 19.2002 2.5 19.2002H17.5C18.1904 19.2002 18.75 18.6406 18.75 17.9502V6.7002Z" fill="#E1B824"/>
<path d="M11.25 9.8252C11.25 9.48002 11.5298 9.2002 11.875 9.2002H18.75V11.7002H11.875C11.5298 11.7002 11.25 11.4204 11.25 11.0752V9.8252Z" fill="#E1B824"/>
<path d="M8.75 13.5752V14.8252C8.75 15.1704 8.47018 15.4502 8.125 15.4502H1.25V12.9502H8.125C8.47018 12.9502 8.75 13.23 8.75 13.5752Z" fill="#E1B824"/>
</svg>
