<svg width="60" height="60" viewBox="0 0 60 60" fill="none" xmlns="http://www.w3.org/2000/svg">
<rect x="1.5" y="1.5" width="57" height="57" rx="28.5" fill="white"/>
<path d="M19.0246 20.3504C18.6585 19.9843 18.6585 19.3907 19.0246 19.0246C19.3907 18.6585 19.9843 18.6585 20.3504 19.0246L30 28.6742L39.6496 19.0246C40.0157 18.6585 40.6093 18.6585 40.9754 19.0246C41.3415 19.3907 41.3415 19.9843 40.9754 20.3504L31.3258 30L40.9754 39.6496C41.3415 40.0157 41.3415 40.6093 40.9754 40.9754C40.6093 41.3415 40.0157 41.3415 39.6496 40.9754L30 31.3258L20.3504 40.9754C19.9843 41.3415 19.3907 41.3415 19.0246 40.9754C18.6585 40.6093 18.6585 40.0157 19.0246 39.6496L28.6742 30L19.0246 20.3504Z" fill="#FF0F43"/>
<rect x="1.5" y="1.5" width="57" height="57" rx="28.5" stroke="#FF0F43" stroke-width="3"/>
</svg>
