<svg width="25" height="26" viewBox="0 0 25 26" fill="none" xmlns="http://www.w3.org/2000/svg">
<path d="M24.9349 9.63765C24.7712 9.10941 24.3222 8.73422 23.7909 8.68427L16.5753 8.00058L13.722 1.03175C13.5116 0.521027 13.0325 0.19043 12.5001 0.19043C11.9678 0.19043 11.4886 0.521027 11.2783 1.03295L8.42497 8.00058L1.20814 8.68427C0.677886 8.73542 0.230029 9.10941 0.0654206 9.63765C-0.0991879 10.1659 0.0528317 10.7453 0.453958 11.1105L5.90816 16.1019L4.29984 23.4948C4.18216 24.0383 4.38434 24.6002 4.81655 24.9261C5.04888 25.1013 5.32068 25.1904 5.59478 25.1904C5.83111 25.1904 6.06553 25.124 6.27591 24.9926L12.5001 21.1108L18.7221 24.9926C19.1774 25.2784 19.7513 25.2524 20.1825 24.9261C20.615 24.5992 20.817 24.0371 20.6992 23.4948L19.0909 16.1019L24.5451 11.1115C24.9463 10.7453 25.0995 10.1669 24.9349 9.63765Z" fill="#6F6F6F"/>
</svg>
