<svg width="60" height="60" viewBox="0 0 60 60" fill="none" xmlns="http://www.w3.org/2000/svg">
<path fill-rule="evenodd" clip-rule="evenodd" d="M3.75 30C3.75 44.4975 15.5025 56.25 30 56.25C44.4975 56.25 56.25 44.4975 56.25 30C56.25 15.5025 44.4975 3.75 30 3.75C15.5025 3.75 3.75 15.5025 3.75 30ZM60 30C60 46.5685 46.5685 60 30 60C13.4315 60 0 46.5685 0 30C0 13.4315 13.4315 0 30 0C46.5685 0 60 13.4315 60 30ZM31.875 43.125C31.875 44.1605 31.0355 45 30 45C28.9645 45 28.125 44.1605 28.125 43.125V21.4017L20.0758 29.4508C19.3436 30.1831 18.1564 30.1831 17.4242 29.4508C16.6919 28.7186 16.6919 27.5314 17.4242 26.7992L28.6742 15.5492C29.4064 14.8169 30.5936 14.8169 31.3258 15.5492L42.5758 26.7992C43.3081 27.5314 43.3081 28.7186 42.5758 29.4508C41.8436 30.1831 40.6564 30.1831 39.9242 29.4508L31.875 21.4017V43.125Z" fill="#FF0F43"/>
</svg>
