<?xml version="1.0" encoding="utf-8"?>
<svg xmlns="http://www.w3.org/2000/svg" viewBox="0 0 48 48" fill="#ffffff"><path d="M 24.476562 3.9785156 A 1.50015 1.50015 0 0 0 23 5.5 L 23 7 L 8.1523438 7 C 7.3797997 7 6.6334245 7.2703035 6.0410156 7.7636719 A 1.50015 1.50015 0 0 0 6.0390625 7.765625 L 2.1992188 10.964844 C 0.63941172 12.264683 0.63941172 14.735317 2.1992188 16.035156 L 6.0371094 19.234375 C 6.6314516 19.731199 7.382175 20 8.1523438 20 L 23 20 L 23 25 L 12.152344 25 C 11.3798 25 10.633424 25.270304 10.041016 25.763672 A 1.50015 1.50015 0 0 0 10.039062 25.765625 L 6.1992188 28.964844 C 4.6394117 30.264683 4.6394117 32.735317 6.1992188 34.035156 L 10.037109 37.234375 C 10.631501 37.731149 11.382175 38 12.152344 38 L 23 38 L 23 44.5 A 1.50015 1.50015 0 1 0 26 44.5 L 26 29 L 39.847656 29 C 40.617196 29 41.366824 28.730419 41.960938 28.234375 L 45.800781 25.035156 C 47.360588 23.735317 47.360588 21.264683 45.800781 19.964844 L 41.960938 16.765625 A 1.50015 1.50015 0 0 0 41.958984 16.763672 C 41.366622 16.270351 40.6202 16 39.847656 16 L 26 16 L 26 5.5 A 1.50015 1.50015 0 0 0 24.476562 3.9785156 z M 8.1523438 10 L 23 10 L 23 17 L 8.1523438 17 C 8.0805128 17 8.0145453 16.974821 7.9628906 16.931641 A 1.50015 1.50015 0 0 0 7.9609375 16.931641 L 4.1210938 13.730469 C 3.9529007 13.590308 3.9529007 13.409692 4.1210938 13.269531 L 7.9589844 10.070312 L 7.9609375 10.068359 C 8.0142486 10.024791 8.0837326 10 8.1523438 10 z M 26 19 L 39.847656 19 C 39.917116 19 39.987424 19.025683 40.041016 19.070312 L 43.878906 22.269531 C 44.047099 22.409692 44.047099 22.590308 43.878906 22.730469 L 40.039062 25.931641 A 1.50015 1.50015 0 0 0 40.037109 25.931641 C 39.985502 25.974821 39.919488 26 39.847656 26 L 26 26 L 26 19 z M 12.152344 28 L 23 28 L 23 35 L 12.152344 35 C 12.080514 35 12.014545 34.974821 11.962891 34.931641 A 1.50015 1.50015 0 0 0 11.960938 34.931641 L 8.1210938 31.730469 C 7.9529007 31.590308 7.9529007 31.409692 8.1210938 31.269531 L 11.958984 28.070312 L 11.960938 28.068359 C 12.014199 28.024791 12.083733 28 12.152344 28 z" fill="#ffffff"/></svg>
