<svg width="19" height="19" viewBox="0 0 19 19" fill="none" xmlns="http://www.w3.org/2000/svg">
<path d="M18.9505 7.37868C18.8261 6.99395 18.4849 6.72069 18.0811 6.68431L12.5972 6.18636L10.4287 1.1108C10.2688 0.738829 9.90469 0.498047 9.5001 0.498047C9.09551 0.498047 8.73136 0.738829 8.57147 1.11167L6.40298 6.18636L0.918188 6.68431C0.515193 6.72156 0.174822 6.99395 0.0497196 7.37868C-0.0753828 7.76341 0.0401521 8.18539 0.345008 8.4514L4.4902 12.0867L3.26788 17.4711C3.17844 17.867 3.3321 18.2762 3.66058 18.5136C3.83715 18.6412 4.04372 18.7061 4.25203 18.7061C4.43164 18.7061 4.6098 18.6577 4.76969 18.562L9.5001 15.7348L14.2288 18.562C14.5748 18.7702 15.011 18.7512 15.3387 18.5136C15.6674 18.2755 15.8209 17.8661 15.7314 17.4711L14.5091 12.0867L18.6543 8.45212C18.9592 8.18539 19.0756 7.76413 18.9505 7.37868Z" fill="#6F6F6F"/>
</svg>
