<svg width="32" height="33" viewBox="0 0 32 33" fill="none" xmlns="http://www.w3.org/2000/svg">
<path fill-rule="evenodd" clip-rule="evenodd" d="M19.235 22.2637C17.463 23.4851 15.315 24.2002 13 24.2002C6.92487 24.2002 2 19.2753 2 13.2002C2 7.12507 6.92487 2.2002 13 2.2002C19.0751 2.2002 24 7.12507 24 13.2002C24 15.5152 23.2849 17.6632 22.0635 19.4352L29.4142 26.786L26.5858 29.6144L19.235 22.2637ZM13 20.2002C16.866 20.2002 20 17.0662 20 13.2002C20 9.33421 16.866 6.2002 13 6.2002C9.13401 6.2002 6 9.33421 6 13.2002C6 17.0662 9.13401 20.2002 13 20.2002Z" fill="#E1B824"/>
</svg>
