<svg width="194" height="159" viewBox="0 0 194 159" fill="none" xmlns="http://www.w3.org/2000/svg">
<path fill-rule="evenodd" clip-rule="evenodd" d="M18.7525 137.028C18.5151 136.292 17.81 135.929 17.1777 136.214C14.3293 137.501 11.3444 138.301 8.2702 138.915C6.73078 139.223 5.19369 139.443 3.64135 139.571C3.46822 139.585 3.25173 139.59 2.99789 139.594C2.76594 139.6 2.50282 139.605 2.21305 139.618C2.00151 139.628 1.66356 139.647 1.41355 139.721C1.35563 139.737 1.17955 139.789 0.99531 139.926C0.900826 139.995 0.718086 140.148 0.577036 140.426C0.411142 140.752 0.350636 141.159 0.44657 141.559C0.52875 141.903 0.696569 142.117 0.78827 142.219C0.887147 142.329 0.982541 142.398 1.04095 142.437C1.15736 142.515 1.26874 142.563 1.33695 142.591C1.60742 142.699 1.87777 142.807 2.14794 142.915C5.66178 144.319 9.14823 145.712 12.5208 147.365C14.9822 148.572 17.339 149.871 19.2917 151.712C19.8141 152.204 20.5846 152.104 21.0126 151.489C21.4407 150.874 21.3642 149.975 20.8416 149.483C18.6071 147.376 15.9798 145.952 13.4898 144.732C11.4591 143.737 9.39049 142.834 7.3191 141.976C7.76527 141.9 8.21088 141.818 8.65636 141.728C11.8112 141.098 14.9745 140.258 18.0376 138.875C18.6698 138.59 18.9899 137.762 18.7525 137.028Z" fill="#FFBE55"/>
<path d="M10.213 142.939C97.3923 146.142 160.089 103.475 186.472 41.2182" stroke="#FFBE55" stroke-width="3" stroke-linecap="round"/>
</svg>
