<svg width="200" height="223" viewBox="0 0 200 223" fill="none" xmlns="http://www.w3.org/2000/svg">
<path fill-rule="evenodd" clip-rule="evenodd" d="M176.324 173.87C176.2 173.231 176.57 172.583 177.15 172.422C178.123 172.155 179.017 172.051 179.918 172.167C180.817 172.282 181.662 172.607 182.548 173.11C185.349 174.7 187.803 177.03 189.98 179.31C190.405 179.755 190.413 180.51 189.997 180.997C189.581 181.484 188.9 181.518 188.476 181.073C186.331 178.827 184.05 176.681 181.517 175.244C180.786 174.829 180.184 174.614 179.6 174.539C179.017 174.464 178.39 174.522 177.601 174.739C177.021 174.9 176.449 174.511 176.324 173.87Z" fill="#FFBE55"/>
<path fill-rule="evenodd" clip-rule="evenodd" d="M189.78 181.469C189.219 181.708 188.605 181.404 188.409 180.789C188.241 180.264 188.053 179.704 187.855 179.117C187.172 177.088 186.38 174.737 185.966 172.394C185.427 169.337 185.47 166.012 187.326 163.079C187.672 162.531 188.344 162.383 188.827 162.749C189.309 163.116 189.419 163.858 189.072 164.406C187.713 166.554 187.591 169.098 188.079 171.858C188.455 173.994 189.161 176.092 189.835 178.094C190.043 178.713 190.248 179.324 190.439 179.923C190.636 180.538 190.34 181.23 189.78 181.469Z" fill="#FFBE55"/>
<path d="M184.812 172.438C154.095 86.9317 91.1819 42.5028 4.75098 51.4287" stroke="#FFBE55" stroke-width="3" stroke-linecap="round"/>
</svg>
