<svg width="272" height="250" viewBox="0 0 272 250" fill="none" xmlns="http://www.w3.org/2000/svg">
<path fill-rule="evenodd" clip-rule="evenodd" d="M63.058 224.569C62.5218 223.701 61.5592 223.463 60.9077 224.038C57.9727 226.623 54.7073 228.627 51.2715 230.421C49.5512 231.32 47.8034 232.106 46.0053 232.777C45.8048 232.852 45.5496 232.929 45.2499 233.017C44.9765 233.1 44.666 233.193 44.3269 233.305C44.0791 233.387 43.6845 233.521 43.4134 233.698C43.3503 233.738 43.1595 233.862 42.988 234.098C42.8998 234.218 42.7361 234.475 42.6647 234.878C42.5807 235.351 42.6499 235.895 42.9022 236.378C43.1186 236.793 43.3921 237.014 43.536 237.115C43.6914 237.223 43.8285 237.281 43.9114 237.312C44.0765 237.375 44.2253 237.4 44.3159 237.413C44.6742 237.464 45.0324 237.514 45.3904 237.565C50.0466 238.223 54.6659 238.874 59.2404 239.897C62.5791 240.645 65.8255 241.545 68.78 243.274C69.5703 243.736 70.4501 243.356 70.7451 242.425C71.0402 241.494 70.6383 240.363 69.8479 239.901C66.4671 237.923 62.8564 236.95 59.4789 236.195C56.7247 235.579 53.9573 235.094 51.2021 234.667C51.7054 234.424 52.2059 234.173 52.7035 233.912C56.2293 232.071 59.6926 229.957 62.8489 227.177C63.5006 226.604 63.5939 225.435 63.058 224.569Z" fill="#FFBE55"/>
<path d="M54.9695 234.96C159.536 210.589 219.173 135.235 228.935 46.5603" stroke="#FFBE55" stroke-width="3" stroke-linecap="round"/>
</svg>
