<svg width="191" height="169" viewBox="0 0 191 169" fill="none" xmlns="http://www.w3.org/2000/svg">
<path fill-rule="evenodd" clip-rule="evenodd" d="M174.872 121.461C174.31 121.605 173.931 122.149 174.024 122.676C174.181 123.557 174.44 124.313 174.877 124.991C175.313 125.667 175.897 126.22 176.64 126.737C178.987 128.374 181.797 129.45 184.46 130.323C184.979 130.493 185.589 130.211 185.822 129.692C186.054 129.173 185.821 128.614 185.301 128.444C182.678 127.584 180.082 126.576 177.96 125.096C177.347 124.669 176.944 124.269 176.66 123.83C176.378 123.391 176.185 122.867 176.058 122.152C175.965 121.625 175.434 121.316 174.872 121.461Z" fill="#FFBE55"/>
<path fill-rule="evenodd" clip-rule="evenodd" d="M186.117 129.338C186.095 128.797 185.616 128.421 185.047 128.499C184.561 128.566 184.039 128.629 183.492 128.694C181.601 128.922 179.411 129.185 177.37 129.749C174.709 130.485 172.054 131.79 170.408 134.397C170.1 134.884 170.238 135.479 170.717 135.726C171.196 135.972 171.834 135.776 172.141 135.289C173.347 133.38 175.344 132.31 177.747 131.646C179.607 131.132 181.562 130.896 183.427 130.671C184.004 130.601 184.573 130.532 185.128 130.456C185.696 130.379 186.139 129.878 186.117 129.338Z" fill="#FFBE55"/>
<path d="M176.966 128.809C96.5453 136.866 36.8144 103.438 10.9512 30.7852" stroke="#FFBE55" stroke-width="3" stroke-linecap="round"/>
</svg>
