<svg width="165" height="36" viewBox="0 0 165 36" fill="none" xmlns="http://www.w3.org/2000/svg">
<path fill-rule="evenodd" clip-rule="evenodd" d="M28.9907 28.4C29.2592 29.3333 27.7828 31.2 26.5748 31.2C26.0946 31.2 25.5429 31.1645 24.9328 31.1251C21.859 30.9271 17.3064 30.6337 12.9814 34.3138C12.407 34.8026 11.8365 35.3615 11.2742 36V31.2H2.4159C1.6106 31.2 0 30.8 0 29.2V0H28.9907V28.4ZM25.1471 29.4132C22.3238 29.2155 17.577 28.8833 12.9814 32.1497V29.4857H2.4159C2.34511 29.4857 2.22485 29.4757 2.09011 29.4439C1.95506 29.4119 1.84838 29.3682 1.77739 29.3259C1.74104 29.3042 1.72223 29.288 1.71398 29.2799C1.71103 29.2673 1.70722 29.2423 1.70722 29.2V1.71428H27.2835V28.6426L27.2866 28.6532C27.2394 28.7557 27.1542 28.8975 27.0276 29.0493C26.8815 29.2245 26.7255 29.3585 26.5991 29.4374C26.5586 29.4626 26.5293 29.4773 26.5111 29.4854C26.1321 29.4821 25.673 29.45 25.1471 29.4132ZM1.71682 29.2894L1.71735 29.2903C1.71735 29.2903 1.71692 29.2882 1.71529 29.2849C1.71591 29.2871 1.71682 29.2894 1.71682 29.2894Z" fill="#FF0F43"/>
<path d="M43.0915 12H45.3861L42.0638 7.75204H42.1594C42.2869 7.75204 42.4183 7.71604 42.5538 7.64404C42.6892 7.56404 42.7928 7.45604 42.8645 7.32004L43.7607 5.88004C43.9121 5.64804 44.0476 5.48404 44.1671 5.38805C44.2866 5.29204 44.4221 5.24404 44.5734 5.24404H44.9677V3.54004H44.1671C43.7847 3.54004 43.462 3.62804 43.1991 3.80405C42.9362 3.97204 42.6733 4.26804 42.4104 4.69204L41.1795 6.63604C41.0042 6.94004 40.7851 7.09204 40.5222 7.09204H40.3071V3.60004H38.3711V12H40.3071V8.14804L43.0915 12Z" fill="#FF0F43"/>
<path fill-rule="evenodd" clip-rule="evenodd" d="M46.6288 11.7596C47.0431 12.0236 47.5291 12.1556 48.0868 12.1556C48.4851 12.1556 48.8477 12.0676 49.1743 11.8916C49.5089 11.7076 49.7559 11.4716 49.9152 11.1836V11.9996H51.7317V6.21558H49.9152V7.04358C49.7559 6.73957 49.5169 6.49957 49.1982 6.32358C48.8795 6.14757 48.517 6.05957 48.1107 6.05957C47.5689 6.05957 47.0869 6.19157 46.6647 6.45557C46.2504 6.71958 45.9318 7.08357 45.7086 7.54758C45.4855 8.01157 45.374 8.53157 45.374 9.10758C45.374 9.69159 45.4816 10.2156 45.6967 10.6796C45.9118 11.1356 46.2225 11.4956 46.6288 11.7596ZM49.6284 10.1996C49.3894 10.4876 49.0508 10.6316 48.6126 10.6316C48.1983 10.6316 47.8637 10.4916 47.6088 10.2116C47.3618 9.92361 47.2383 9.5556 47.2383 9.10758C47.2383 8.65957 47.3618 8.29558 47.6088 8.01558C47.8637 7.73557 48.1983 7.59557 48.6126 7.59557C49.0508 7.59557 49.3894 7.73957 49.6284 8.02757C49.8675 8.31557 49.9869 8.67557 49.9869 9.10758C49.9869 9.54759 49.8675 9.91155 49.6284 10.1996Z" fill="#FF0F43"/>
<path fill-rule="evenodd" clip-rule="evenodd" d="M56.9547 6.05957C57.4725 6.05957 57.9306 6.18757 58.329 6.44357C58.7353 6.69957 59.05 7.05957 59.2731 7.52357C59.4962 7.97958 59.6077 8.50757 59.6077 9.10758C59.6077 9.70761 59.4922 10.2396 59.2612 10.7036C59.0381 11.1596 58.7194 11.5155 58.3051 11.7716C57.8988 12.0275 57.4327 12.1556 56.9069 12.1556C56.5006 12.1556 56.1301 12.0635 55.7955 11.8796C55.4689 11.6955 55.2259 11.4636 55.0666 11.1836V14.3996H53.25V6.21558H55.0666V7.04358C55.2259 6.75558 55.4768 6.51957 55.8194 6.33557C56.1619 6.15157 56.5404 6.05957 56.9547 6.05957ZM56.3811 10.6316C56.7794 10.6316 57.106 10.4916 57.361 10.2116C57.616 9.92361 57.7434 9.5556 57.7434 9.10758C57.7434 8.65957 57.616 8.29558 57.361 8.01558C57.106 7.73557 56.7794 7.59557 56.3811 7.59557C55.9668 7.59557 55.6322 7.73557 55.3772 8.01558C55.1223 8.29558 54.9948 8.65957 54.9948 9.10758C54.9948 9.56361 55.1223 9.93153 55.3772 10.2116C55.6401 10.4916 55.9748 10.6316 56.3811 10.6316Z" fill="#FF0F43"/>
<path fill-rule="evenodd" clip-rule="evenodd" d="M62.5236 8.02782V6.21582H60.707V11.9998H63.7306C64.2245 11.9998 64.6468 11.9039 64.9973 11.7118C65.3558 11.5198 65.6227 11.2718 65.798 10.9679C65.9733 10.6638 66.0609 10.3478 66.0609 10.0198C66.0609 9.45181 65.8617 8.97982 65.4633 8.60382C65.073 8.21981 64.4954 8.02782 63.7306 8.02782H62.5236ZM63.396 10.8118H62.5236V9.25183H63.4079C63.6549 9.25183 63.846 9.32383 63.9815 9.46783C64.125 9.61183 64.1966 9.79984 64.1966 10.0319C64.1966 10.2638 64.125 10.4518 63.9815 10.5958C63.846 10.7398 63.6509 10.8118 63.396 10.8118Z" fill="#FF0F43"/>
<path fill-rule="evenodd" clip-rule="evenodd" d="M72.8022 8.80758C72.8022 9.05556 72.7863 9.32358 72.7545 9.61158H68.5001C68.516 9.9876 68.6434 10.2756 68.8825 10.4756C69.1214 10.6756 69.4442 10.7756 69.8504 10.7756C70.4161 10.7756 70.7746 10.6036 70.926 10.2596H72.7185C72.631 10.8276 72.3202 11.2876 71.7864 11.6396C71.2606 11.9835 70.6152 12.1556 69.8504 12.1556C68.8626 12.1556 68.0858 11.8876 67.5201 11.3516C66.9624 10.8156 66.6836 10.0676 66.6836 9.10758C66.6836 8.48358 66.811 7.94358 67.066 7.48757C67.3209 7.02357 67.6834 6.67157 68.1535 6.43158C68.6235 6.18357 69.1693 6.05957 69.7907 6.05957C70.3803 6.05957 70.9021 6.17557 71.3562 6.40757C71.8183 6.63958 72.1729 6.96358 72.4198 7.37957C72.6747 7.79557 72.8022 8.27157 72.8022 8.80758ZM70.9977 8.47157C70.9897 8.08758 70.8822 7.79557 70.675 7.59557C70.4679 7.39558 70.1691 7.29557 69.7788 7.29557C69.3884 7.29557 69.0777 7.40358 68.8466 7.61958C68.6235 7.82758 68.508 8.11157 68.5001 8.47157H70.9977Z" fill="#FF0F43"/>
<path fill-rule="evenodd" clip-rule="evenodd" d="M78.9267 6.44357C78.5283 6.18757 78.0702 6.05957 77.5523 6.05957C77.1381 6.05957 76.7596 6.15157 76.4171 6.33557C76.0744 6.51957 75.8235 6.75558 75.6642 7.04358V6.21558H73.8477V14.3996H75.6642V11.1836C75.8235 11.4636 76.0665 11.6955 76.3931 11.8796C76.7277 12.0635 77.0983 12.1556 77.5045 12.1556C78.0304 12.1556 78.4964 12.0275 78.9028 11.7716C79.317 11.5155 79.6357 11.1596 79.8588 10.7036C80.0899 10.2396 80.2053 9.70761 80.2053 9.10758C80.2053 8.50757 80.0938 7.97958 79.8707 7.52357C79.6477 7.05957 79.333 6.69957 78.9267 6.44357ZM77.9587 10.2116C77.7037 10.4916 77.3771 10.6316 76.9788 10.6316C76.5724 10.6316 76.2378 10.4916 75.9749 10.2116C75.7199 9.93153 75.5925 9.56361 75.5925 9.10758C75.5925 8.65957 75.7199 8.29558 75.9749 8.01558C76.2299 7.73557 76.5645 7.59557 76.9788 7.59557C77.3771 7.59557 77.7037 7.73557 77.9587 8.01558C78.2136 8.29558 78.3411 8.65957 78.3411 9.10758C78.3411 9.5556 78.2136 9.92361 77.9587 10.2116Z" fill="#FF0F43"/>
<path d="M81.3057 6.21582H83.1341V8.33982H85.2852V6.21582H87.1018V11.9998H85.2852V9.81586H83.1341V11.9998H81.3057V6.21582Z" fill="#FF0F43"/>
<path fill-rule="evenodd" clip-rule="evenodd" d="M90.4395 8.02782V6.21582H88.623V11.9998H91.6464C92.1405 11.9998 92.5626 11.9039 92.9136 11.7118C93.2718 11.5198 93.5391 11.2718 93.7137 10.9679C93.8892 10.6638 93.9765 10.3478 93.9765 10.0198C93.9765 9.45181 93.7776 8.97982 93.3798 8.60382C92.9892 8.21981 92.4114 8.02782 91.6464 8.02782H90.4395ZM91.3116 10.8118H90.4395V9.25183H91.3242C91.5708 9.25183 91.7625 9.32383 91.8975 9.46783C92.0406 9.61183 92.1126 9.79984 92.1126 10.0319C92.1126 10.2638 92.0406 10.4518 91.8975 10.5958C91.7625 10.7398 91.5672 10.8118 91.3116 10.8118Z" fill="#FF0F43"/>
<path d="M96.3435 6.21582H94.5264V11.9998H96.3435V6.21582Z" fill="#FF0F43"/>
<path d="M100.686 5.89165C100.017 5.89165 99.4872 5.73965 99.0966 5.43565C98.7141 5.12365 98.5035 4.69165 98.4639 4.13965H99.8139C99.822 4.37165 99.9012 4.55165 100.053 4.67965C100.213 4.79965 100.423 4.85965 100.686 4.85965C100.957 4.85965 101.168 4.79965 101.32 4.67965C101.479 4.55165 101.563 4.37165 101.571 4.13965H102.909C102.877 4.68364 102.662 5.11165 102.264 5.42365C101.866 5.73565 101.339 5.89165 100.686 5.89165Z" fill="#FF0F43"/>
<path d="M99.6941 11.5558V11.9998H97.8662V6.21582H99.6941V9.6958L101.797 6.73182V6.21582H103.615V11.9998H101.797V8.60382L99.6941 11.5558Z" fill="#FF0F43"/>
<path d="M111.938 7.69181V11.9998H113.766V6.21582H108.042V11.9998H109.871V7.69181H111.938Z" fill="#FF0F43"/>
<path fill-rule="evenodd" clip-rule="evenodd" d="M118.027 12.1556C117.382 12.1556 116.816 12.0275 116.33 11.7716C115.844 11.5076 115.47 11.1436 115.207 10.6796C114.952 10.2156 114.824 9.69159 114.824 9.10758C114.824 8.52357 114.952 7.99957 115.207 7.53557C115.47 7.07158 115.844 6.71158 116.33 6.45557C116.816 6.19157 117.382 6.05957 118.027 6.05957C118.673 6.05957 119.234 6.19157 119.712 6.45557C120.198 6.71158 120.569 7.07158 120.824 7.53557C121.086 7.99957 121.218 8.52357 121.218 9.10758C121.218 9.69159 121.086 10.2156 120.824 10.6796C120.569 11.1436 120.198 11.5076 119.712 11.7716C119.234 12.0275 118.673 12.1556 118.027 12.1556ZM118.027 10.6076C118.449 10.6076 118.784 10.4715 119.031 10.1996C119.278 9.91956 119.402 9.5556 119.402 9.10758C119.402 8.65957 119.278 8.29957 119.031 8.02757C118.784 7.74757 118.449 7.60757 118.027 7.60757C117.597 7.60757 117.258 7.74757 117.011 8.02757C116.772 8.29957 116.653 8.65957 116.653 9.10758C116.653 9.5556 116.772 9.91956 117.011 10.1996C117.258 10.4715 117.597 10.6076 118.027 10.6076Z" fill="#FF0F43"/>
<path fill-rule="evenodd" clip-rule="evenodd" d="M127.347 6.44357C126.949 6.18757 126.491 6.05957 125.973 6.05957C125.559 6.05957 125.18 6.15157 124.838 6.33557C124.495 6.51957 124.244 6.75558 124.085 7.04358V6.21558H122.269V14.3996H124.085V11.1836C124.244 11.4636 124.487 11.6955 124.814 11.8796C125.149 12.0635 125.519 12.1556 125.925 12.1556C126.451 12.1556 126.917 12.0275 127.324 11.7716C127.738 11.5155 128.056 11.1596 128.28 10.7036C128.511 10.2396 128.626 9.70761 128.626 9.10758C128.626 8.50757 128.515 7.97958 128.291 7.52357C128.068 7.05957 127.754 6.69957 127.347 6.44357ZM126.38 10.2116C126.124 10.4916 125.798 10.6316 125.4 10.6316C124.993 10.6316 124.659 10.4916 124.396 10.2116C124.141 9.93153 124.014 9.56361 124.014 9.10758C124.014 8.65957 124.141 8.29558 124.396 8.01558C124.651 7.73557 124.986 7.59557 125.4 7.59557C125.798 7.59557 126.124 7.73557 126.38 8.01558C126.634 8.29558 126.762 8.65957 126.762 9.10758C126.762 9.5556 126.634 9.92361 126.38 10.2116Z" fill="#FF0F43"/>
<path d="M134.199 7.81182H132.586V11.9998H130.757V7.81182H129.156V6.21582H134.199V7.81182Z" fill="#FF0F43"/>
<path fill-rule="evenodd" clip-rule="evenodd" d="M136.036 11.7596C136.45 12.0236 136.936 12.1556 137.494 12.1556C137.893 12.1556 138.254 12.0676 138.581 11.8916C138.916 11.7076 139.163 11.4716 139.323 11.1836V11.9996H141.139V6.21558H139.323V7.04358C139.163 6.73957 138.924 6.49957 138.605 6.32358C138.287 6.14757 137.924 6.05957 137.518 6.05957C136.976 6.05957 136.494 6.19157 136.072 6.45557C135.658 6.71958 135.339 7.08357 135.116 7.54758C134.893 8.01157 134.781 8.53157 134.781 9.10758C134.781 9.69159 134.888 10.2156 135.103 10.6796C135.319 11.1356 135.63 11.4956 136.036 11.7596ZM139.036 10.1996C138.796 10.4876 138.458 10.6316 138.019 10.6316C137.605 10.6316 137.271 10.4916 137.016 10.2116C136.768 9.92361 136.645 9.5556 136.645 9.10758C136.645 8.65957 136.768 8.29558 137.016 8.01558C137.271 7.73557 137.605 7.59557 138.019 7.59557C138.458 7.59557 138.796 7.73957 139.036 8.02757C139.275 8.31557 139.394 8.67557 139.394 9.10758C139.394 9.54759 139.275 9.91155 139.036 10.1996Z" fill="#FF0F43"/>
<path d="M142.442 10.5118C142.928 10.5118 143.171 10.1478 143.171 9.41986V6.21582H148.333V11.9998H146.504V7.77582H144.987V9.35983C144.987 10.2078 144.8 10.8718 144.425 11.3518C144.051 11.8319 143.501 12.0718 142.776 12.0718H142.227V10.5118H142.442Z" fill="#FF0F43"/>
<path d="M43.4622 18.2984H39.6022V25.7144H38.5146V17.3145H44.5497V25.7144H43.4622V18.2984Z" fill="#FF0F43"/>
<path fill-rule="evenodd" clip-rule="evenodd" d="M49.4616 20.0381C48.5773 20.0381 47.7886 20.4701 47.4301 21.1661V20.1821H46.4023V28.27H47.4301V24.742C47.7886 25.426 48.5534 25.858 49.4019 25.858C50.9914 25.858 52.1266 24.6461 52.1266 22.9541C52.1266 21.2261 51.0391 20.0381 49.4616 20.0381ZM49.2585 24.922C48.1591 24.922 47.3823 24.1061 47.3823 22.9541C47.3823 21.79 48.1591 20.9741 49.2585 20.9741C50.3221 20.9741 51.0869 21.8021 51.0869 22.9541C51.0869 24.1061 50.3221 24.922 49.2585 24.922Z" fill="#FF0F43"/>
<path fill-rule="evenodd" clip-rule="evenodd" d="M57.7051 24.742C57.3585 25.426 56.5698 25.858 55.7453 25.858C53.9885 25.858 53.0205 24.5861 53.0205 22.9541C53.0205 21.322 54.0602 20.0381 55.7691 20.0381C56.6415 20.0381 57.3585 20.4821 57.7051 21.1661V20.1821H58.7328V25.714H57.7051V24.742ZM54.0482 22.9541C54.0482 24.0821 54.7534 24.922 55.8886 24.922C57.0956 24.922 57.7529 24.022 57.7529 22.9541C57.7529 21.8861 57.0956 20.9741 55.8886 20.9741C54.7534 20.9741 54.0482 21.8141 54.0482 22.9541Z" fill="#FF0F43"/>
<path fill-rule="evenodd" clip-rule="evenodd" d="M60.5234 20.1826V25.7146H63.0569C64.5149 25.7146 64.9212 24.8146 64.9212 24.2146C64.9212 23.4106 64.3237 22.8946 63.6067 22.8586C64.2998 22.7866 64.8376 22.2706 64.8376 21.6346C64.8376 21.0106 64.503 20.1826 63.1167 20.1826H60.5234ZM63.045 22.5226H61.5273V20.9266H63.0331C63.4871 20.9266 63.7979 21.2866 63.7979 21.7306C63.7979 22.1506 63.4871 22.5226 63.045 22.5226ZM61.5273 23.2666H63.0809C63.5349 23.2666 63.8935 23.6746 63.8935 24.1426C63.8935 24.5866 63.5349 24.9706 63.0809 24.9706H61.5273V23.2666Z" fill="#FF0F43"/>
<path d="M70.2538 25.7146V21.8506L67.4215 25.2826V25.7146H66.3818V20.1826H67.4215V24.0946L70.2538 20.6506V20.1826H71.2935V25.7146H70.2538Z" fill="#FF0F43"/>
<path d="M76.9654 20.1826H72.5557V21.1546H74.2407V25.7146H75.2684V21.1546H76.9654V20.1826Z" fill="#FF0F43"/>
<path fill-rule="evenodd" clip-rule="evenodd" d="M80.2069 20.0381C81.7605 20.0381 82.8121 21.1181 82.8121 22.6421C82.8121 22.8461 82.8121 23.0021 82.7882 23.2541H78.5218C78.5458 24.3221 79.2031 24.9461 80.2547 24.9461C80.9837 24.9461 81.4855 24.6581 81.7126 24.13H82.7524C82.5611 25.1501 81.5453 25.858 80.2547 25.858C78.5577 25.858 77.4941 24.7301 77.4941 22.942C77.4941 21.1901 78.5696 20.0381 80.2069 20.0381ZM80.195 20.8781C79.1911 20.8781 78.5696 21.514 78.5218 22.4501H81.7963C81.7963 21.4781 81.1988 20.8781 80.195 20.8781Z" fill="#FF0F43"/>
<path d="M83.5488 24.7786V25.7626H83.9791C85.0426 25.7626 85.688 24.9346 85.688 23.3506V21.1546H87.8391V25.7146H88.8668V20.1826H84.6602V23.3866C84.6602 24.4066 84.3136 24.7786 83.7639 24.7786H83.5488Z" fill="#FF0F43"/>
<path fill-rule="evenodd" clip-rule="evenodd" d="M90.6572 25.7146V20.1826H91.685V22.1146H93.1304C94.3139 22.1146 95.0546 22.9186 95.0546 23.9146C95.0546 24.8866 94.2419 25.7146 93.107 25.7146H90.6572ZM93.0116 22.9426H91.685V24.8866H92.999C93.6209 24.8866 93.9791 24.4666 93.9791 23.9146C93.9791 23.3626 93.6326 22.9426 93.0116 22.9426Z" fill="#FF0F43"/>
<path d="M98.5876 25.8578C100.07 25.8578 101.026 25.0538 101.157 23.8418H100.118C99.9745 24.5378 99.448 24.9218 98.5759 24.9218C97.5247 24.9218 96.8794 24.1778 96.8794 22.9538C96.8794 21.7178 97.5247 20.9858 98.5759 20.9858C99.448 20.9858 99.9745 21.3697 100.118 22.1018H101.157C101.026 20.8658 100.07 20.0498 98.5876 20.0498C96.8911 20.0498 95.8516 21.2378 95.8516 22.9538C95.8516 24.6698 96.8911 25.8578 98.5876 25.8578Z" fill="#FF0F43"/>
<path d="M101.661 20.1826H106.071V21.1546H104.374V25.7146H103.346V21.1546H101.661V20.1826Z" fill="#FF0F43"/>
<path fill-rule="evenodd" clip-rule="evenodd" d="M107.346 20.1826V25.7146H109.879C111.337 25.7146 111.743 24.8146 111.743 24.2146C111.743 23.4106 111.145 22.8946 110.429 22.8586C111.122 22.7866 111.659 22.2706 111.659 21.6346C111.659 21.0106 111.325 20.1826 109.939 20.1826H107.346ZM109.867 22.5226H108.349V20.9266H109.855C110.309 20.9266 110.62 21.2866 110.62 21.7306C110.62 22.1506 110.309 22.5226 109.867 22.5226ZM108.349 23.2666H109.903C110.357 23.2666 110.715 23.6746 110.715 24.1426C110.715 24.5866 110.357 24.9706 109.903 24.9706H108.349V23.2666Z" fill="#FF0F43"/>
<path fill-rule="evenodd" clip-rule="evenodd" d="M117.446 24.742C117.1 25.426 116.311 25.858 115.486 25.858C113.73 25.858 112.762 24.5861 112.762 22.9541C112.762 21.322 113.801 20.0381 115.51 20.0381C116.382 20.0381 117.1 20.4821 117.446 21.1661V20.1821H118.474V25.714H117.446V24.742ZM113.79 22.9541C113.79 24.0821 114.494 24.922 115.63 24.922C116.837 24.922 117.494 24.022 117.494 22.9541C117.494 21.8861 116.837 20.9741 115.63 20.9741C114.494 20.9741 113.79 21.8141 113.79 22.9541Z" fill="#FF0F43"/>
<path d="M123.347 25.7144H124.386V19.5465L126.849 25.7144H127.685L130.134 19.5825V25.7144H131.175V17.3145H130.134L127.267 24.1664L124.399 17.3145H123.347V25.7144Z" fill="#FF0F43"/>
<path fill-rule="evenodd" clip-rule="evenodd" d="M138.326 22.9541C138.326 24.562 137.238 25.858 135.458 25.858C133.665 25.858 132.59 24.562 132.59 22.9541C132.59 21.3341 133.665 20.0381 135.458 20.0381C137.238 20.0381 138.326 21.3341 138.326 22.9541ZM133.618 22.9541C133.618 24.058 134.299 24.922 135.458 24.922C136.617 24.922 137.287 24.058 137.287 22.9541C137.287 21.8381 136.617 20.9741 135.458 20.9741C134.299 20.9741 133.618 21.8381 133.618 22.9541Z" fill="#FF0F43"/>
<path d="M142.025 25.8578C143.507 25.8578 144.463 25.0538 144.594 23.8418H143.555C143.411 24.5378 142.885 24.9218 142.013 24.9218C140.961 24.9218 140.316 24.1778 140.316 22.9538C140.316 21.7178 140.961 20.9858 142.013 20.9858C142.885 20.9858 143.411 21.3697 143.555 22.1018H144.594C144.463 20.8658 143.507 20.0498 142.025 20.0498C140.328 20.0498 139.288 21.2378 139.288 22.9538C139.288 24.6698 140.328 25.8578 142.025 25.8578Z" fill="#FF0F43"/>
<path d="M148.008 22.8461L150.601 25.714H149.31L146.967 23.1101V25.714H145.928V20.1821H146.967V22.582H147.171C147.433 22.582 147.637 22.474 147.876 22.1021L148.772 20.8421C149.143 20.3261 149.394 20.1221 149.955 20.1221H150.397V21.07H150.159C149.86 21.07 149.704 21.178 149.489 21.4901L148.975 22.2341C148.64 22.726 148.438 22.8461 148.067 22.8461H148.008Z" fill="#FF0F43"/>
<path fill-rule="evenodd" clip-rule="evenodd" d="M151.845 20.1826V25.7146H154.378C155.836 25.7146 156.243 24.8146 156.243 24.2146C156.243 23.4106 155.645 22.8946 154.928 22.8586C155.621 22.7866 156.159 22.2706 156.159 21.6346C156.159 21.0106 155.825 20.1826 154.439 20.1826H151.845ZM154.367 22.5226H152.849V20.9266H154.355C154.809 20.9266 155.12 21.2866 155.12 21.7306C155.12 22.1506 154.809 22.5226 154.367 22.5226ZM152.849 23.2666H154.403C154.857 23.2666 155.215 23.6746 155.215 24.1426C155.215 24.5866 154.857 24.9706 154.403 24.9706H152.849V23.2666Z" fill="#FF0F43"/>
<path fill-rule="evenodd" clip-rule="evenodd" d="M157.703 25.7146V20.1826H158.731V22.1146H160.177C161.36 22.1146 162.101 22.9186 162.101 23.9146C162.101 24.8866 161.288 25.7146 160.153 25.7146H157.703ZM160.058 22.9426H158.731V24.8866H160.046C160.667 24.8866 161.025 24.4666 161.025 23.9146C161.025 23.3626 160.679 22.9426 160.058 22.9426Z" fill="#FF0F43"/>
<path d="M163.894 25.7146H162.866V20.1826H163.894V25.7146Z" fill="#FF0F43"/>
</svg>
