<svg width="32" height="33" viewBox="0 0 32 33" fill="none" xmlns="http://www.w3.org/2000/svg">
<path fill-rule="evenodd" clip-rule="evenodd" d="M6.66667 1.5332H20.5523L28 8.98092V28.1999C28 29.6727 26.8061 30.8666 25.3333 30.8666H6.66667C5.19391 30.8666 4 29.6727 4 28.1999V4.19987C4 2.72711 5.19391 1.5332 6.66667 1.5332ZM17.3333 4.20019H6.66667V28.2002H25.3333V12.2002H20C18.5272 12.2002 17.3333 11.0063 17.3333 9.53353V4.20019ZM20 4.75248V9.53353H24.781L20 4.75248ZM22.6667 16.2002H9.33333V13.5336H22.6667V16.2002ZM9.33333 20.2002H22.6667V17.5336H9.33333V20.2002ZM20 21.5336V24.2002H9.33333V21.5336H20ZM14.6667 6.86686H9.33333V12.2002H14.6667V6.86686Z" fill="#E1B824"/>
</svg>
