<svg width="30" height="30" viewBox="0 0 30 30" fill="none" xmlns="http://www.w3.org/2000/svg">
	<path d="M15 6.5625C15 6.04473 14.5803 5.625 14.0625 5.625C13.5447 5.625 13.125 6.04473 13.125 6.5625V16.875C13.125 17.2114 13.3053 17.5221 13.5974 17.689L20.1599 21.439C20.6094 21.6959 21.1821 21.5397 21.439 21.0901C21.6959 20.6406 21.5397 20.0679 21.0901 19.811L15 16.3309V6.5625Z" fill="#FFBE55" />
	<path d="M15 30C23.2843 30 30 23.2843 30 15C30 6.71573 23.2843 0 15 0C6.71573 0 0 6.71573 0 15C0 23.2843 6.71573 30 15 30ZM28.125 15C28.125 22.2487 22.2487 28.125 15 28.125C7.75126 28.125 1.875 22.2487 1.875 15C1.875 7.75126 7.75126 1.875 15 1.875C22.2487 1.875 28.125 7.75126 28.125 15Z" fill="#FFBE55" />
</svg>
