<svg width="30" height="30" viewBox="0 0 30 30" fill="none" xmlns="http://www.w3.org/2000/svg">
<path d="M22.8108 16.7621C21.8283 18.7528 20.4984 20.7377 19.1358 22.5188C17.7775 24.2944 16.4145 25.8315 15.3894 26.9259C15.2532 27.0713 15.1231 27.2087 15 27.3376C14.8769 27.2087 14.7468 27.0713 14.6106 26.9259C13.5855 25.8315 12.2225 24.2944 10.8642 22.5188C9.50164 20.7377 8.17171 18.7528 7.18918 16.7621C6.19651 14.7508 5.625 12.8661 5.625 11.25C5.625 6.07233 9.82233 1.875 15 1.875C20.1777 1.875 24.375 6.07233 24.375 11.25C24.375 12.8661 23.8035 14.7508 22.8108 16.7621ZM15 30C15 30 26.25 19.3382 26.25 11.25C26.25 5.0368 21.2132 0 15 0C8.7868 0 3.75 5.0368 3.75 11.25C3.75 19.3382 15 30 15 30Z" fill="#FFBE55"/>
<path d="M15 15C12.9289 15 11.25 13.3211 11.25 11.25C11.25 9.17893 12.9289 7.5 15 7.5C17.0711 7.5 18.75 9.17893 18.75 11.25C18.75 13.3211 17.0711 15 15 15ZM15 16.875C18.1066 16.875 20.625 14.3566 20.625 11.25C20.625 8.1434 18.1066 5.625 15 5.625C11.8934 5.625 9.375 8.1434 9.375 11.25C9.375 14.3566 11.8934 16.875 15 16.875Z" fill="#FFBE55"/>
</svg>
