<svg width="32" height="33" viewBox="0 0 32 33" fill="none" xmlns="http://www.w3.org/2000/svg">
<path d="M27.3125 16.9602H24.1801C23.7538 16.9602 23.3411 17.0184 22.9482 17.1255C22.1734 15.6023 20.5914 14.5557 18.7684 14.5557H13.2316C11.4086 14.5557 9.82663 15.6023 9.05175 17.1255C8.65894 17.0184 8.24619 16.9602 7.81988 16.9602H4.6875C2.10281 16.9602 0 19.063 0 21.6477V26.655C0 28.2059 1.26169 29.5348 2.8125 29.5348H29.1875C30.7383 29.5348 32 28.2059 32 26.655V21.6477C32 19.063 29.8972 16.9602 27.3125 16.9602ZM8 19.2432V26.8669H4C3.33333 26.8669 2.66667 26.0505 2.66667 25.5335V21.5335C2.66667 19.9827 3.13669 19.2432 4.6875 19.2432C4.942 19.2432 8 19.2432 8 19.2432C8 19.1391 7.99325 19.3458 8 19.2432ZM21.3333 26.8669H10.6667V19.2432C10.6667 17.6924 11.7825 16.8669 13.3333 16.8669H18.6667C20.2175 16.8669 21.3333 17.6924 21.3333 19.2432V26.8669ZM29.3333 26.2002C29.3333 26.7171 28.6667 26.8669 28 26.8669H24V19.2432C24 19.139 24.0068 18.9377 24 18.8352C24 18.8352 23.9256 18.8352 24.1801 18.8352H27.3125C28.8633 18.8352 29.3333 19.9827 29.3333 21.5335V26.2002Z" fill="#E1B824"/>
<path fill-rule="evenodd" clip-rule="evenodd" d="M15.9994 2.86719C12.8791 2.86719 10.8438 5.13022 10.8438 8.02286C10.8438 12.4404 13.1134 14.4674 15.9994 14.4674C18.8584 14.4674 21.1551 12.5078 21.1551 8.28064C21.1551 5.34394 19.1111 2.86719 15.9994 2.86719ZM15.9997 11.8921C14.4764 11.8921 13.4219 10.9503 13.4219 8.02543C13.4219 6.49912 14.3675 5.44759 15.9997 5.44759C17.5666 5.44759 18.5774 6.6726 18.5774 8.28321C18.5774 10.9878 17.5177 11.8921 15.9997 11.8921Z" fill="#E1B824"/>
<path fill-rule="evenodd" clip-rule="evenodd" d="M5.7011 5.53418C2.65256 5.53418 0.664062 7.74514 0.664062 10.5712C0.664062 14.8872 2.88145 16.8675 5.7011 16.8675C8.49425 16.8675 10.7381 14.953 10.7381 10.8231C10.7381 7.95395 8.7412 5.53418 5.7011 5.53418ZM5.70472 14.351C4.21654 14.351 3.1862 13.4308 3.1862 10.5732C3.1862 9.08203 4.11017 8.05469 5.70472 8.05469C7.23554 8.05469 8.22324 9.25151 8.22324 10.8251C8.22324 13.4675 7.18775 14.351 5.70472 14.351Z" fill="#E1B824"/>
<path fill-rule="evenodd" clip-rule="evenodd" d="M26.2324 5.53418C23.1838 5.53418 21.1953 7.74514 21.1953 10.5712C21.1953 14.8872 23.4127 16.8675 26.2324 16.8675C29.0255 16.8675 31.2694 14.953 31.2694 10.8231C31.2694 7.95395 29.2724 5.53418 26.2324 5.53418ZM26.236 14.351C24.7478 14.351 23.7174 13.4308 23.7174 10.5732C23.7174 9.08203 24.6414 8.05469 26.236 8.05469C27.7668 8.05469 28.7545 9.25151 28.7545 10.8251C28.7545 13.4675 27.719 14.351 26.236 14.351Z" fill="#E1B824"/>
</svg>
