<svg width="21" height="22" viewBox="0 0 21 22" fill="none" xmlns="http://www.w3.org/2000/svg">
<path fill-rule="evenodd" clip-rule="evenodd" d="M9.73866 0.916992C11.5608 0.917066 13.3423 1.4285 14.859 2.38699C16.3758 3.34548 17.5601 4.70822 18.263 6.30386C18.9659 7.89949 19.1561 9.65677 18.8096 11.3547C18.4631 13.0527 17.5954 14.6154 16.3156 15.8466L20.2658 19.5969C20.4012 19.7254 20.4835 19.8956 20.4978 20.0768C20.512 20.2579 20.4574 20.438 20.3436 20.5841L20.2658 20.67L19.8886 21.0281C19.7388 21.1701 19.5356 21.2499 19.3238 21.2499C19.1121 21.2499 18.9089 21.1701 18.7591 21.0281L14.6405 17.122C13.4273 17.8424 12.0543 18.2854 10.6299 18.4163C9.20553 18.5471 7.76858 18.3621 6.43235 17.8759C5.09611 17.3897 3.89713 16.6155 2.92992 15.6144C1.96271 14.6134 1.2537 13.4127 0.858787 12.1072C0.463875 10.8016 0.393855 9.42687 0.654247 8.09126C0.914638 6.75565 1.49832 5.4957 2.35929 4.41073C3.22025 3.32577 4.33497 2.44544 5.61555 1.83915C6.89614 1.23286 8.3076 0.917179 9.73866 0.916992ZM9.73866 2.93983C7.8536 2.93983 6.04574 3.65059 4.7128 4.91574C3.37986 6.1809 2.63102 7.89681 2.63102 9.68601C2.63102 11.4752 3.37986 13.1911 4.7128 14.4563C6.04574 15.7214 7.8536 16.4322 9.73866 16.4322C11.6237 16.4322 13.4316 15.7214 14.7645 14.4563C16.0975 13.1911 16.8463 11.4752 16.8463 9.68601C16.8463 7.89681 16.0975 6.1809 14.7645 4.91574C13.4316 3.65059 11.6237 2.93983 9.73866 2.93983Z" fill="#0E0E0F"/>
</svg>
